<svg id="Layer_1" enable-background="new 0 0 511.941 511.941" height="512" viewBox="0 0 511.941 511.941" width="512" xmlns="http://www.w3.org/2000/svg"><g><path d="m399.202 0h-262.773c-27.939 0-51.393 23.382-51.393 51.383-.001 0 .001 367.583 0 367.584.006 28.333 23.057 51.38 51.392 51.38h14.309v34.153c0 5.477 5.996 8.855 10.519 6.866l35.61-15.655c2.724-1.197 4.481-3.891 4.481-6.866v-18.498h197.855c15.275 0 27.703-12.428 27.703-27.703v-414.941c.001-15.275-12.427-27.703-27.703-27.703zm12.704 27.703v339.776h-267.967v-274.075c0-4.142-3.357-7.5-7.5-7.5s-7.5 3.358-7.5 7.5v274.62c-11.212 1.644-21.258 6.923-28.902 14.605v-331.236c0-17.118 12.184-32.103 28.902-35.616v39.89c0 4.142 3.357 7.5 7.5 7.5s7.5-3.358 7.5-7.5v-40.667h255.264c7.004 0 12.703 5.699 12.703 12.703zm-225.559 456.246-20.61 9.061v-66.597h20.61zm212.855-28.602h-197.855v-28.934h113.227c9.931-.344 9.923-14.66 0-15h-178.135c-9.931.344-9.923 14.66 0 15h14.298v28.934h-14.309c-48.248-1.983-48.3-70.881 0-72.868h275.478v28.561h-57.969c-9.931.344-9.923 14.66 0 15h57.969v16.604c0 7.004-5.699 12.703-12.704 12.703z"/><path d="m204.99 277.309c3.073 19.853 18.926 35.544 38.864 38.377 1.99 10.481 9.329 19.385 19.812 23.541 4.225 1.674 6.271 4.559 6.634 9.354.688 9.089 14.979 8.928 14.979-.566 0-4.512 1.832-7.14 6.126-8.788 10.242-3.932 17.724-12.93 20.065-23.507 20.047-2.744 36.012-18.479 39.097-38.41 22.242-3.163 39.401-22.326 39.401-45.42v-78.809c0-23.093-17.159-42.256-39.401-45.419-3.085-19.93-19.05-35.666-39.097-38.41-2.342-10.577-9.823-19.575-20.066-23.507-4.293-1.648-6.125-4.276-6.125-8.788 0-9.435-14.448-9.848-14.988-.427-.275 4.835-2.22 7.604-6.501 9.259-10.072 3.893-17.427 12.856-19.722 23.466-20.038 2.75-35.993 18.483-39.077 38.407-22.243 3.163-39.402 22.326-39.402 45.419v78.809c-.001 23.093 17.158 42.256 39.401 45.419zm-24.402-124.228c0-17.025 13.859-30.877 30.896-30.877 3.962-.406 7.967-2.871 7.967-7.5 0-17.026 13.859-30.877 30.895-30.877 3.986-.441 7.967-2.949 7.967-7.598 0-7.322 4.375-13.933 10.886-16.449 3.262-1.261 6.07-2.989 8.388-5.131 2.306 2.111 5.132 3.828 8.442 5.099 6.71 2.576 11.218 9.239 11.218 16.579 0 4.629 4.005 7.094 7.967 7.5 17.035 0 30.895 13.852 30.895 30.877 0 4.629 4.005 7.094 7.967 7.5 17.035 0 30.895 13.852 30.895 30.877v78.809c0 17.026-13.859 30.877-30.895 30.877-3.962.406-7.967 2.871-7.967 7.5 0 17.025-13.859 30.877-30.895 30.877-3.962.406-7.967 2.871-7.967 7.5 0 7.34-4.508 14.003-11.217 16.579-3.363 1.291-6.227 3.042-8.552 5.199-2.3-2.136-5.074-3.868-8.283-5.139-6.61-2.621-10.882-8.655-10.882-15.375.064-5.245-2.674-8.329-7.967-8.764-17.035 0-30.895-13.852-30.895-30.877.015-4.324-3.668-7.736-7.967-7.5-17.036 0-30.895-13.852-30.895-30.877v-78.809z"/><path d="m278.789 259.739c37.099 0 67.281-30.17 67.281-67.254 0-9.697-15-9.697-15 0 0 28.813-23.453 52.254-52.281 52.254-69.359-2.871-69.338-101.648 0-104.508 9.697 0 9.697-15 0-15-89.259 3.695-89.231 130.827 0 134.508z"/><path d="m304.385 160.514h5.72v5.713c.344 9.931 14.66 9.923 15 0v-5.713h5.719c9.931-.344 9.923-14.66 0-15h-5.719v-5.714c-.344-9.931-14.66-9.923-15 0v5.713h-5.72c-9.931.345-9.923 14.66 0 15.001z"/></g></svg>